<svg xmlns="http://www.w3.org/2000/svg">
	<path fill="#fff" d="M8.988 16.702a1.65 1.65 0 0 1-1.154-1.975l-1.15-.664a1.644 1.644 0 0 1-1.14.457c-.458 0-.873-.187-1.172-.489l-1.129.652a1.652 1.652 0 0 1-1.593 2.081 1.65 1.65 0 1 1 1.111-2.87l1.17-.675a1.65 1.65 0 0 1 2.748-1.547l2.297-1.326v-2.69a1.648 1.648 0 0 1-.683-.396l-1.149.718a1.653 1.653 0 0 1-1.6 2.054A1.65 1.65 0 0 1 3.939 8l-1.197-.691c-.18.158-.394.279-.63.347v1.386a1.65 1.65 0 1 1-.924 0V7.656a1.65 1.65 0 1 1 1.64-2.739l1.1-.687a1.65 1.65 0 1 1 .436.817l-1.099.687a1.657 1.657 0 0 1-.029.793l1.16.67a1.645 1.645 0 0 1 1.148-.465c.438 0 .836.17 1.131.449l1.158-.724A1.654 1.654 0 0 1 9.042 4.47V3.252a1.65 1.65 0 1 1 .858-.018v1.254a1.65 1.65 0 0 1 0 3.168v2.728l2.189 1.264c.21-.215.48-.372.781-.446V9.984a1.65 1.65 0 1 1 1.526-2.804l1.146-.716a1.658 1.658 0 0 1 .019-.733l-1.184-.683a1.65 1.65 0 1 1 .482-.789l1.171.676a1.65 1.65 0 1 1 1.592 2.787v1.254a1.65 1.65 0 1 1-.858-.018V7.74a1.648 1.648 0 0 1-.79-.456l-1.108.692a1.653 1.653 0 0 1-1.138 1.99v1.254a1.65 1.65 0 0 1 1.127 2.03l1.164.672a1.65 1.65 0 1 1-.462.8l-1.192-.687a1.65 1.65 0 0 1-2.714-1.572l-2.246-1.298-2.26 1.305a1.654 1.654 0 0 1 .002.794l1.146.662a1.65 1.65 0 1 1 1.564 2.785v2.16l1.88-1.086a1.652 1.652 0 0 1 1.595-2.077 1.65 1.65 0 1 1-1.155 2.828l-2.32 1.34v3.946h8.531a.29.29 0 0 1 0 .58h-8.5c.15 1.1 1.193 1.248 2.821 1.38 1.587.13 3.385.278 3.869 2.065a.218.218 0 0 1-.21.275.217.217 0 0 1-.21-.16c-.364-1.347-1.675-1.583-3.04-1.707.037.04.072.083.104.127.261.353.67.517 1.101.69.541.218 1.1.443 1.354 1.061a.218.218 0 1 1-.402.165c-.184-.447-.615-.62-1.114-.821a6.407 6.407 0 0 1-.563-.249c.054.203.097.41.137.611.073.364.142.708.273.996a.218.218 0 0 1-.395.182c-.153-.335-.23-.72-.304-1.092-.179-.89-.332-1.66-1.397-1.778l-.007-.001c-.756-.085-1.46-.236-1.921-.64.216.506.538.875.854 1.236.13.15.262.3.386.46l.006.007c.13.168.282.31.442.463.214.202.439.416.622.703l.012.016c.241.385.953 1.17 1.405 1.425a.218.218 0 0 1-.213.38c-.255-.144-.559-.41-.837-.696.026.268.026.572-.012.93a.217.217 0 0 1-.216.194h-.023a.218.218 0 0 1-.194-.24c.106-.999-.09-1.527-.388-1.917.132.678.047 1.575-.456 2.881a.218.218 0 1 1-.406-.156c.974-2.53.312-3.286-.455-4.163-.304-.347-.628-.72-.866-1.218.068.853.179 1.552.274 2.158.289 1.825.462 2.927-.968 4.94a.216.216 0 0 1-.304.051.218.218 0 0 1-.05-.303c1.05-1.48 1.173-2.4 1.04-3.6a3.152 3.152 0 0 1-.295.408c-.272.336-.529.654-.475 1.546a.217.217 0 0 1-.203.23l-.014.001a.218.218 0 0 1-.217-.205c-.064-1.06.273-1.477.57-1.846.297-.367.553-.684.4-1.718a23.88 23.88 0 0 1-.183-1.522c-.234.476-.62.995-1.261 1.536-.765.646-.558 1.35-.318 2.164.157.534.32 1.086.219 1.66a.217.217 0 1 1-.428-.076c.083-.473-.065-.975-.208-1.46a7.877 7.877 0 0 1-.177-.678c-.02.085-.038.17-.056.256-.16.752-.327 1.53-1.335 2.192a.218.218 0 0 1-.239-.364c.859-.563.993-1.19 1.148-1.919.068-.316.14-.653.283-.992l-.183.11c-.638.377-.99.584-1.13 1.386a.217.217 0 1 1-.428-.076c.176-.999.662-1.287 1.336-1.685.356-.21.759-.449 1.235-.85.751-.634 1.116-1.222 1.295-1.74-.058.071-.12.14-.187.204-.647.606-1.7.867-3.131.779-.636.117-.707.464-.804 1.228-.089.695-.199 1.56-.958 2.458a.216.216 0 0 1-.306.026.218.218 0 0 1-.026-.306c.676-.802.777-1.595.858-2.233.057-.443.112-.87.363-1.178a4.767 4.767 0 0 0-.647.084c-.555.23-.58.523-.622 1.05-.028.353-.063.792-.3 1.278a.217.217 0 0 1-.29.1.218.218 0 0 1-.1-.29c.2-.413.23-.79.257-1.123.019-.232.038-.46.111-.67-.836.484-.968 1.197-.976 1.244a.218.218 0 0 1-.429-.071c.107-.64.698-1.587 2.191-1.924.003 0 .004-.002.006-.003a.215.215 0 0 1 .079-.015c.448-.092.974-.13 1.59-.09 1.305.085 2.285-.144 2.836-.661.308-.288.436-.617.484-.9H.457a.29.29 0 0 1 0-.58h8.53v-3.946l-2.325-1.344a1.612 1.612 0 0 1-.656.39 1.65 1.65 0 1 1 .943-2.31 1.597 1.597 0 0 1 .148 1.165l1.89 1.094.001-2.17zm5.126 1.148a.924.924 0 0 0-1.6-.924l.027.015a.876.876 0 0 0 0 .883.882.882 0 0 0 1.527 0l.046.026zm-8.35.387a.924.924 0 1 0-1.058-.37l.072-.042a.88.88 0 0 0 .985.412zm4.459-2.635a.924.924 0 1 0-1.577-.013l.013-.008a.883.883 0 0 0 1.528 0l.036.021zM1.65 6.996a.924.924 0 1 0 0-1.848.924.924 0 0 0 0 1.848zm0 4.554a.924.924 0 1 0 0-1.848.924.924 0 0 0 0 1.848zm3.894-6.732a.924.924 0 1 0 0-1.848.924.924 0 0 0 0 1.848zm3.894-2.244a.924.924 0 1 0 0-1.848.924.924 0 0 0 0 1.848zm0 4.422a.924.924 0 1 0 0-1.848.924.924 0 0 0 0 1.848zm-3.894 2.31a.924.924 0 1 0 0-1.848.924.924 0 0 0 0 1.848zm7.722-4.554a.924.924 0 1 0 0-1.848.924.924 0 0 0 0 1.848zm3.894 2.31a.924.924 0 1 0 0-1.848.924.924 0 0 0 0 1.848zm0 4.422a.924.924 0 1 0 0-1.848.924.924 0 0 0 0 1.848zm-3.894-2.178a.924.924 0 1 0 0-1.848.924.924 0 0 0 0 1.848zm0 4.422a.924.924 0 1 0 0-1.848.924.924 0 0 0 0 1.848zm3.894 2.31a.924.924 0 1 0 0-1.848.924.924 0 0 0 0 1.848zM5.544 13.794a.924.924 0 1 0 0-1.848.924.924 0 0 0 0 1.848zM1.65 16.038a.924.924 0 1 0 0-1.848.924.924 0 0 0 0 1.848zM34.7 5.905V5.03h-6.28v.875h2.65v8.287h.979V5.905h2.65zm6.996 8.287v-.875h-4.71V10.01h4.015v-.875h-4.014v-3.23h4.71V5.03h-5.688v9.162h5.687zm7.923 0V5.03h-6.292v9.162h.978V5.905h4.337v8.287h.977zm8.323 0V5.03h-5.045v3.719c0 3.809-.81 4.568-1.943 4.568h-.244v.875h.463c1.75 0 2.677-1.287 2.677-5.147v-3.14h3.114v8.287h.978zm8.81 0V5.03h-.926l-4.658 7.463V5.03h-.978v9.162h.927l4.658-7.476v7.476h.978zm9.635 2.213v-3.088h-1.093V5.03h-.978v8.287h-4.337V5.03h-.978v9.162h6.421v2.213h.965zm7.834-2.213L80.862 5.03h-.823l-3.372 9.162h1.043l.733-2.072h4.002l.733 2.072h1.043zm-2.06-2.921H78.74l1.724-4.838 1.699 4.838zM35.395 27.166h-.978c-.244 1.12-1.055 1.853-2.2 1.853-.605 0-1.184-.232-1.583-.643-.579-.592-.643-1.223-.643-3.14s.064-2.548.643-3.14c.4-.412.978-.643 1.583-.643 1.145 0 1.93.733 2.175 1.853h1.003c-.309-1.725-1.531-2.728-3.178-2.728-.9 0-1.724.334-2.342.952-.862.862-.862 1.763-.862 3.706s0 2.844.862 3.706a3.266 3.266 0 0 0 2.342.952c1.634 0 2.882-1.004 3.178-2.728zm7.563-2.56c0-1.12-.064-2.278-.862-3.076a3.266 3.266 0 0 0-2.342-.952c-.9 0-1.724.334-2.342.952-.785.785-.862 1.904-.862 2.998v.708c0 1.827.026 2.87.862 3.706.618.617 1.429.952 2.342.952.914 0 1.724-.335 2.342-.952.836-.837.862-1.879.862-3.706v-.63zm-.978 1.08c0 1.055-.013 2.046-.643 2.677a2.208 2.208 0 0 1-1.583.656 2.208 2.208 0 0 1-1.583-.656c-.591-.592-.643-1.493-.643-2.484v-.913c0-1.261 0-2.214.643-2.857a2.23 2.23 0 0 1 1.583-.656 2.23 2.23 0 0 1 1.583.656c.605.605.643 1.557.643 2.638v.94zm10.265 6.344v-3.088h-1.093v-8.287h-.978v8.287h-4.337v-8.287h-.978v9.162h6.421v2.213h.965zm8.014-2.213v-9.162h-.927l-4.658 7.463v-7.463h-.978v9.162h.927l4.658-7.476v7.476h.978zm8.63 0l-3.358-9.162h-.823l-3.372 9.162h1.043l.733-2.072h4.002l.733 2.072h1.043zm-2.058-2.921h-3.423l1.724-4.838 1.699 4.838zm9.197 2.92v-9.161h-5.044v3.719c0 3.809-.81 4.568-1.943 4.568h-.245v.875h.464c1.75 0 2.676-1.287 2.676-5.147v-3.14h3.114v8.287h.978zm8.515-2.689c0-1.62-1.12-2.702-2.83-2.702h-2.458v-3.77h-.978v9.162h3.435c1.699 0 2.831-1.081 2.831-2.69zm-.99 0c0 1.146-.708 1.815-1.93 1.815h-2.368V25.3h2.367c1.223 0 1.93.67 1.93 1.827zm8.733 2.69v-9.162h-.978v4.105h-4.349v-4.105h-.978v9.162h.978v-4.182h4.35v4.182h.977zm10.716 0v-9.162h-.978v9.162H103zm-2.2-2.69c0-1.62-1.12-2.702-2.831-2.702h-2.458v-3.77h-.978v9.162h3.436c1.698 0 2.83-1.081 2.83-2.69zm-.991 0c0 1.146-.708 1.815-1.93 1.815h-2.368V25.3h2.368c1.222 0 1.93.67 1.93 1.827zm11.011 2.69l-2.83-4.697 2.637-4.465h-1.132l-2.033 3.616-2.033-3.616h-1.133l2.625 4.465-2.805 4.697h1.107l2.239-3.848 2.226 3.848h1.132zm9.258-8.287v-.875H113.8v.875h2.65v8.287h.979V21.53h2.65zm6.997 8.287v-.875h-4.71v-3.307h4.015v-.875h-4.014v-3.23h4.71v-.875h-5.688v9.162h5.687zm7.203 0l-2.831-4.697 2.638-4.465h-1.132l-2.034 3.616-2.033-3.616h-1.132l2.625 4.465-2.805 4.697h1.106l2.24-3.848 2.226 3.848h1.132zm7.421 0v-9.162h-.978v4.105h-4.349v-4.105h-.978v9.162h.978v-4.182h4.35v4.182h.977zm8.31-5.212c0-1.12-.065-2.277-.863-3.075a3.266 3.266 0 0 0-2.341-.952c-.901 0-1.725.334-2.342.952-.785.785-.862 1.904-.862 2.998v.708c0 1.827.025 2.87.862 3.706.617.617 1.428.952 2.342.952.913 0 1.724-.335 2.341-.952.837-.837.863-1.879.863-3.706v-.63zm-.978 1.081c0 1.055-.013 2.046-.644 2.677a2.208 2.208 0 0 1-1.582.656 2.208 2.208 0 0 1-1.583-.656c-.592-.592-.644-1.493-.644-2.484v-.913c0-1.261 0-2.214.644-2.857a2.23 2.23 0 0 1 1.583-.656 2.23 2.23 0 0 1 1.582.656c.605.605.644 1.557.644 2.638v.94zm8.682 4.13v-9.161h-5.044v3.719c0 3.809-.81 4.568-1.943 4.568h-.244v.875h.463c1.75 0 2.676-1.287 2.676-5.147v-3.14h3.114v8.287h.978zm8.31-5.21c0-1.12-.065-2.278-.863-3.076a3.266 3.266 0 0 0-2.342-.952c-.9 0-1.724.334-2.342.952-.784.785-.862 1.904-.862 2.998v.708c0 1.827.026 2.87.862 3.706.618.617 1.429.952 2.342.952.914 0 1.725-.335 2.342-.952.837-.837.862-1.879.862-3.706v-.63zm-.979 1.08c0 1.055-.012 2.046-.643 2.677a2.208 2.208 0 0 1-1.583.656 2.208 2.208 0 0 1-1.582-.656c-.592-.592-.644-1.493-.644-2.484v-.913c0-1.261 0-2.214.644-2.857a2.23 2.23 0 0 1 1.582-.656 2.23 2.23 0 0 1 1.583.656c.605.605.643 1.557.643 2.638v.94zm8.477-4.156v-.875h-5.507v9.162h.978V21.53h4.529zm7.885 8.287v-9.162h-.927l-4.658 7.463v-7.463h-.978v9.162h.927l4.658-7.476v7.476h.978zm8.81 0v-9.162h-.926l-4.658 7.463v-7.463h-.978v9.162h.927l4.658-7.476v7.476h.978zm-1.402-11.362h-.823c-.052.63-.425.952-1.055.952-.631 0-1.004-.322-1.056-.952h-.823c.077 1.145.81 1.621 1.879 1.621 1.068 0 1.801-.476 1.878-1.621z"></path>
	</svg>